# xmcd
#
# Track frame offsets:
#	150
#	23548
#	61528
#	80465
#	110008
#	148355
#	179715
#	200725
#	217285
#
# Disc length: 3319 seconds
#
# Revision: 85
# Processed by: cddbd v1.4PL0 Copyright (c) Steve Scherf et al.
# Submitted via: CDmax 1.8
#
DISCID=8a0cf509
DTITLE=Dire Straits - Brothers In Arms
DYEAR=1985
DGENRE=Rock
TTITLE0=So Far Away
TTITLE1=Money For Nothing
TTITLE2=Walk Of Life
TTITLE3=Your Latest Trick
TTITLE4=Why Worry
TTITLE5=Ride Across The River
TTITLE6=The Man's Too Strong
TTITLE7=One World
TTITLE8=Brothers In Arms
EXTD=
EXTT0=
EXTT1=
EXTT2=
EXTT3=
EXTT4=
EXTT5=
EXTT6=
EXTT7=
EXTT8=
PLAYORDER=
